<?xml version="1.0" standalone="no"?>
<!DOCTYPE svg PUBLIC "-//W3C//DTD SVG 20010904//EN"
 "http://www.w3.org/TR/2001/REC-SVG-20010904/DTD/svg10.dtd">
<svg version="1.0" xmlns="http://www.w3.org/2000/svg"
 width="390.000000pt" height="390.000000pt" viewBox="0 0 390.000000 390.000000"
 preserveAspectRatio="xMidYMid meet">

<g transform="translate(0.000000,390.000000) scale(0.100000,-0.100000)"
fill="#000000" stroke="none">
<path d="M1837 2626 c-73 -31 -119 -66 -155 -119 -79 -114 -82 -265 -8 -378
l26 -39 -42 -37 c-97 -86 -158 -147 -158 -158 0 -15 36 -48 48 -44 21 8 192
172 192 184 0 9 20 3 62 -18 56 -29 70 -32 152 -32 76 0 99 4 141 25 71 34
139 108 165 177 31 81 25 206 -12 278 -79 152 -262 224 -411 161z m252 -63
c44 -22 65 -42 96 -88 l40 -60 0 -100 c0 -112 -10 -139 -72 -201 -112 -113
-286 -113 -399 1 -64 64 -89 130 -82 219 17 209 229 325 417 229z"/>
<path d="M2042 2338 l-93 -93 -53 58 c-29 31 -58 57 -63 57 -5 0 -18 -9 -28
-20 -17 -19 -17 -21 1 -42 34 -42 138 -148 145 -148 11 0 224 221 227 236 4
17 -15 44 -32 44 -6 0 -53 -42 -104 -92z"/>
<path d="M627 1873 c-4 -3 -7 -134 -7 -290 l0 -283 165 0 165 0 0 50 0 50
-110 0 -110 0 0 75 0 75 90 0 90 0 0 50 0 50 -90 0 -90 0 0 65 0 65 110 0 110
0 0 50 0 50 -158 0 c-87 0 -162 -3 -165 -7z"/>
<path d="M1010 1590 l0 -290 55 0 55 0 0 125 0 125 90 0 90 0 0 -125 0 -125
50 0 50 0 0 290 0 290 -50 0 -50 0 0 -120 0 -120 -90 0 -90 0 0 120 0 120 -55
0 -55 0 0 -290z"/>
<path d="M1800 1590 l0 -290 50 0 49 0 3 118 3 117 88 3 87 3 0 49 0 50 -90 0
-90 0 0 70 0 70 115 0 115 0 0 50 0 50 -165 0 -165 0 0 -290z"/>
<path d="M2241 1752 c-18 -70 -52 -200 -76 -289 l-42 -163 52 0 c49 0 53 2 59
28 4 15 12 44 17 65 l10 37 79 0 79 0 10 -37 c5 -21 13 -50 17 -65 6 -26 9
-28 61 -28 47 0 54 2 49 18 -2 9 -34 118 -70 242 -36 124 -70 246 -77 273
l-11 47 -62 0 -61 0 -34 -128z m123 -119 c14 -56 26 -104 26 -107 0 -3 -25 -6
-56 -6 -41 0 -55 3 -51 13 2 6 15 56 28 109 13 53 24 96 25 95 1 -1 14 -48 28
-104z"/>
<path d="M2610 1590 l0 -290 50 0 50 0 0 75 c0 63 4 82 25 115 14 22 29 40 34
40 4 0 32 -52 62 -115 l54 -114 58 -1 c31 0 57 2 57 5 0 3 -38 81 -84 173
l-83 167 59 90 c32 50 65 102 74 118 l15 27 -58 0 -58 -1 -75 -127 -75 -127
-3 128 -3 127 -49 0 -50 0 0 -290z"/>
<path d="M3046 1864 c-3 -9 -6 -139 -6 -290 l0 -274 165 0 165 0 0 50 0 50
-110 0 -110 0 0 75 0 75 96 0 95 0 -3 47 c-3 46 -4 47 -38 48 -19 0 -61 2 -92
3 l-58 2 0 65 0 65 110 0 110 0 0 50 0 50 -159 0 c-136 0 -160 -2 -165 -16z"/>
<path d="M1494 1536 c-3 -8 -4 -29 -2 -48 l3 -33 108 -3 107 -3 0 51 0 50
-105 0 c-82 0 -107 -3 -111 -14z"/>
</g>
</svg>
