<?xml version="1.0" standalone="no"?>
<!DOCTYPE svg PUBLIC "-//W3C//DTD SVG 20010904//EN"
 "http://www.w3.org/TR/2001/REC-SVG-20010904/DTD/svg10.dtd">
<svg version="1.0" xmlns="http://www.w3.org/2000/svg"
 width="392.000000pt" height="392.000000pt" viewBox="0 0 392.000000 392.000000"
 preserveAspectRatio="xMidYMid meet">

<g transform="translate(0.000000,392.000000) scale(0.100000,-0.100000)"
fill="#000000" stroke="none">
<path d="M1543 2632 l-193 -267 0 -362 c0 -200 1 -363 3 -363 6 0 195 275 288
420 l99 154 0 343 c0 189 -1 343 -2 343 -2 0 -90 -121 -195 -268z"/>
<path d="M330 1940 l0 -320 205 0 205 0 0 55 0 55 -145 0 -145 0 0 80 0 80
123 0 123 0 -1 50 0 50 -122 0 -123 0 0 80 0 80 129 0 c71 0 136 3 145 6 12 4
16 20 16 55 l0 49 -205 0 -205 0 0 -320z"/>
<path d="M860 1940 l0 -320 60 0 59 0 3 133 3 132 108 3 107 3 0 -136 0 -135
65 0 65 0 0 320 0 320 -65 0 -65 0 0 -135 0 -136 -107 3 -108 3 -3 133 -3 132
-59 0 -60 0 0 -320z"/>
<path d="M1830 1940 l0 -320 55 0 54 0 3 133 3 132 108 3 107 3 0 49 0 50
-110 0 -110 0 0 79 0 79 95 7 c52 4 106 5 120 3 24 -5 25 -3 25 48 l0 54 -175
0 -175 0 0 -320z"/>
<path d="M2355 2178 c-15 -46 -65 -188 -111 -317 -46 -129 -84 -236 -84 -238
0 -1 29 -3 63 -3 l64 0 16 60 17 60 109 0 109 0 19 -57 20 -58 61 -3 c34 -2
62 1 62 5 0 5 -51 148 -114 318 l-114 310 -45 3 -45 3 -27 -83z m114 -229 c17
-53 31 -99 31 -103 0 -9 -140 -8 -140 2 -1 20 66 210 72 204 4 -4 20 -50 37
-103z"/>
<path d="M2730 1940 l0 -320 55 0 55 0 0 101 c0 92 2 104 24 129 l23 28 85
-126 85 -127 66 -1 c37 0 67 2 67 6 0 4 -52 76 -116 161 -64 85 -119 159 -121
166 -3 7 50 78 116 158 l121 145 -74 0 -74 0 -98 -132 -99 -132 -3 132 -3 132
-54 0 -55 0 0 -320z"/>
<path d="M3220 1940 l0 -320 200 0 200 0 0 55 0 55 -140 0 -140 0 0 80 0 80
120 0 120 0 0 50 0 50 -120 0 -120 0 0 79 c0 54 4 80 13 84 7 2 66 5 132 6 65
1 122 4 127 7 4 3 7 25 6 50 l-3 44 -197 0 -198 0 0 -320z"/>
<path d="M1713 2113 c-16 -21 -60 -77 -97 -125 l-68 -88 96 0 95 0 3 125 c2
69 2 125 1 125 -1 0 -14 -17 -30 -37z"/>
<path d="M1350 1318 l0 -301 52 74 c29 41 106 157 172 259 65 102 132 204 148
228 l29 42 -201 0 -200 0 0 -302z"/>
<path d="M1587 1338 c-35 -47 -60 -88 -54 -88 9 0 90 111 84 116 -3 3 -16 -10
-30 -28z"/>
<path d="M1499 1140 c-20 -39 -35 -70 -34 -70 7 0 95 120 95 129 0 31 -29 3
-61 -59z"/>
</g>
</svg>
