<?xml version="1.0" standalone="no"?>
<!DOCTYPE svg PUBLIC "-//W3C//DTD SVG 20010904//EN"
 "http://www.w3.org/TR/2001/REC-SVG-20010904/DTD/svg10.dtd">
<svg version="1.0" xmlns="http://www.w3.org/2000/svg"
 width="392.000000pt" height="394.000000pt" viewBox="0 0 392.000000 394.000000"
 preserveAspectRatio="xMidYMid meet">

<g transform="translate(0.000000,394.000000) scale(0.100000,-0.100000)"
fill="#000000" stroke="none">
<path d="M1780 2885 c-225 -46 -447 -180 -577 -350 -73 -94 -138 -230 -169
-351 -36 -144 -36 -329 0 -468 120 -461 559 -769 1022 -717 169 19 306 70 440
162 377 261 520 740 347 1159 -120 290 -373 496 -688 561 -106 22 -277 24
-375 4z m7 -323 c18 -11 26 -58 13 -81 -10 -19 -19 -21 -120 -21 l-110 0 0
-80 0 -79 88 -3 87 -3 3 -47 c4 -55 1 -56 -111 -60 l-69 -3 -1 -75 -1 -75 120
-5 119 -5 3 -47 3 -48 -170 0 -171 0 0 314 c0 242 3 315 13 319 20 8 291 7
304 -1z m241 -124 l3 -128 94 0 94 0 3 128 3 127 36 3 c22 2 40 -2 48 -11 8
-11 11 -96 9 -318 l-3 -304 -47 -3 -47 -3 -3 138 -3 138 -90 0 -90 0 -5 -135
-5 -135 -45 0 -45 0 -3 304 c-2 222 1 307 9 318 8 9 26 13 48 11 l36 -3 3
-127z m582 -218 l0 -40 -110 0 -110 0 0 33 c0 19 3 37 7 40 3 4 53 7 110 7
l103 0 0 -40z m-1179 -390 l109 0 0 -35 0 -34 -92 -3 -93 -3 -3 -62 -3 -63 71
0 71 0 -3 -37 -3 -38 -67 -3 -67 -3 -3 -102 -3 -102 -35 0 -35 0 -3 239 c-2
246 0 264 36 251 8 -3 63 -5 123 -5z m577 4 c21 -6 22 -11 22 -113 l0 -106 69
106 c42 64 78 108 90 112 25 6 61 -2 61 -14 0 -5 -27 -49 -60 -99 -33 -49 -63
-97 -66 -105 -4 -9 24 -65 66 -136 76 -128 78 -143 19 -137 -30 3 -38 11 -86
93 -28 50 -54 95 -57 100 -12 24 -31 -36 -36 -110 -5 -79 -5 -80 -33 -83 -56
-7 -57 0 -57 247 0 258 1 262 68 245z m590 -37 l-3 -32 -95 -5 -95 -5 -3 -62
-3 -63 75 0 c66 0 75 -2 81 -20 3 -11 3 -29 0 -40 -6 -18 -15 -20 -81 -20
l-74 0 0 -65 0 -65 96 0 95 0 -3 -37 -3 -38 -130 0 -130 0 -3 235 c-2 189 0
237 11 245 8 6 67 9 141 7 l127 -3 -3 -32z m-843 23 c7 -11 134 -436 138 -460
3 -18 -50 -27 -67 -10 -6 6 -16 28 -21 48 l-11 37 -81 3 -82 3 -13 -48 c-12
-43 -17 -48 -46 -51 -22 -2 -34 2 -38 12 -3 8 8 59 25 113 16 54 44 147 61
206 47 163 43 157 89 157 22 0 43 -4 46 -10z"/>
<path d="M1687 1637 c-10 -40 -20 -83 -24 -95 -5 -21 -2 -22 46 -22 31 0 51 4
51 11 0 20 -44 179 -50 179 -3 0 -13 -33 -23 -73z"/>
</g>
</svg>
